<?xml version="1.0" encoding="UTF-8"?>
<svg width="256" height="256" xmlns="http://www.w3.org/2000/svg">
  <rect width="256" height="256" fill="#1a1a2e" rx="20"/>
  <rect x="4" y="4" width="248" height="248" fill="none" stroke="#00ff88" stroke-width="8" rx="16"/>
  
  <!-- Chart line -->
  <polyline points="40,180 80,140 120,160 160,100 200,80" 
            fill="none" stroke="#00ff88" stroke-width="6" stroke-linecap="round"/>
  
  <!-- Candlesticks -->
  <line x1="50" y1="140" x2="50" y2="170" stroke="#00ff88" stroke-width="3"/>
  <rect x="44" y="150" width="12" height="20" fill="#00ff88"/>
  
  <line x1="90" y1="110" x2="90" y2="160" stroke="#ff4444" stroke-width="3"/>
  <rect x="84" y="120" width="12" height="30" fill="#ff4444"/>
  
  <line x1="130" y1="130" x2="130" y2="180" stroke="#00ff88" stroke-width="3"/>
  <rect x="124" y="140" width="12" height="30" fill="#00ff88"/>
  
  <line x1="170" y1="80" x2="170" y2="140" stroke="#00ff88" stroke-width="3"/>
  <rect x="164" y="90" width="12" height="40" fill="#00ff88"/>
  
  <line x1="210" y1="60" x2="210" y2="110" stroke="#00ff88" stroke-width="3"/>
  <rect x="204" y="70" width="12" height="30" fill="#00ff88"/>
  
  <!-- "LIVE" text -->
  <text x="128" y="220" font-family="Arial, sans-serif" font-size="42" 
        font-weight="bold" fill="#00ff88" text-anchor="middle">LIVE</text>
</svg>